<?xml version="1.0" standalone="no"?> <!DOCTYPE svg PUBLIC "-//W3C//DTD SVG 1.0//EN" "http://www.w3.org/TR/2001/REC-SVG-20010904/DTD/svg10.dtd" > <svg xmlns="http://www.w3.org/2000/svg" width="100%" height="100%">
<defs >
<font id="NimbusRomanDOT-RegularItalic" horiz-adv-x="378" ><font-face
    font-family="NimbusRomanDOT-RegularItalic"
    units-per-em="1000"
    panose-1="2 0 0 0 0 0 0 0 0 0"
    ascent="671"
    descent="-167"
    alphabetic="0" />
<missing-glyph horiz-adv-x="250" />
<glyph unicode=" " glyph-name="space" horiz-adv-x="250" />
<glyph unicode="!" glyph-name="exclam" horiz-adv-x="259" d="M95 94Q115 94 130 79T145 44Q145 23 130 8T95 -7Q74 -7 59 8T44 44T59 79T95 94ZM126 154L104 160Q140 290 156 369T185 560Q191 614 208 645T249 677Q265 677 275 666T285 635Q285 605 272 564T198
369Q146 233 126 154Z" />
<glyph unicode="&quot;" glyph-name="quotedbl" horiz-adv-x="373" d="M132 453L140 518Q150 606 164 634Q183 677 224 677Q241 677 250 668T260 643Q260 615 217 518L187 453H132ZM295 453L303 518Q314 606 327 634Q346 677 388 677Q405 677 414 668T424 643Q424
615 380 518L351 453H295Z" />
<glyph unicode="#" glyph-name="numbersign" horiz-adv-x="485" d="M344 226L257 0H210L298 226H164L77 0H30L118 226H27L44 269H134L190 412H99L116 455H207L289 667H336L253 455H387L469 667H516L433 455H524L507 412H417L361 269H452L435 226H344ZM314 269L370
412H237L181 269H314Z" />
<glyph unicode="$" glyph-name="dollar" horiz-adv-x="485" d="M193 4L175 -61H142L161 6Q134 10 103 26T54 61L91 191H108Q101 160 101 146Q101 112 123 79Q138 53 171 39L255 333Q189 384 165 420T141 507Q141 576 191 620T318 665Q328 665 349 662L367 723H399L380
657Q438 639 478 603L444 485H425Q430 510 430 523Q430 596 371 625L308 404Q367 356 390 328Q434 278 434 209Q434 123 370 64T211 4H193ZM202 32H216Q276 32 320 74T364 172Q364 251 282 314L202 32ZM280 420L341 635Q324 639 313 639Q270 639 241 608T212 532Q212
501 227 476T280 420Z" />
<glyph unicode="%" glyph-name="percent" horiz-adv-x="679" d="M263 671Q297 671 318 641T340 562Q340 473 293 401T187 329Q153 329 132 360T110 440Q110 527 157 599T263 671ZM259 652Q229 652 200 599Q183 568 168 507T153 408Q153 381 162 365T188 348Q215
348 241 391Q262 425 278 489T294 600Q294 623 285 637T259 652ZM656 667H703L90 0H43L656 667ZM555 338Q589 338 610 308T632 229Q632 140 585 68T479 -5Q445 -5 424 26T402 106Q402 193 449 265T555 338ZM551 319Q521 319 492 266Q475 234 460 174T445 74Q445
47 454 31T480 14Q507 14 533 57Q554 92 570 155T586 266Q586 290 577 304T551 319Z" />
<glyph unicode="&amp;" glyph-name="ampersand" horiz-adv-x="683" d="M603 69H626Q595 25 565 6T495 -13Q428 -13 371 61Q292 -12 205 -12Q126 -12 77 35T27 159Q27 245 102 316Q157 367 265 400Q261 437 261 460Q261 566 317 622Q364 669 425 669Q463 669 488
642T514 575Q514 508 451 454Q415 423 351 400Q375 263 415 161Q475 254 475 300Q475 332 441 335V353H614V335Q578 330 551 304T488 218Q455 160 430 127L447 98Q497 33 539 33Q578 33 603 69ZM346 430Q349 431 353 433Q398 453 424 493T450 583Q450 605 439 618T410
631Q378 631 360 595T341 495Q341 474 344 444Q344 443 344 442T345 439T345 435T346 430ZM271 369Q199 337 171 306Q125 257 125 187Q125 128 161 85T246 42Q296 42 354 88Q299 169 271 369Z" />
<glyph unicode="&apos;" glyph-name="quotesingle" horiz-adv-x="210" d="M132 453L140 518Q150 606 164 634Q183 677 224 677Q241 677 250 668T260 643Q260 615 217 518L187 453H132Z" />
<glyph unicode="(" glyph-name="parenleft" horiz-adv-x="354" d="M393 677L403 660Q335 618 291 571T207 451Q108 270 108 77Q108 -63 189 -158L177 -177Q37 -31 37 129Q37 234 75 337T180 518Q225 571 272 606T393 677Z" />
<glyph unicode=")" glyph-name="parenright" horiz-adv-x="354" d="M-15 -177L-25 -160Q43 -118 87 -71T171 49Q270 230 270 423Q270 563 189 658L201 677Q341 532 341 371Q341 266 303 163T198 -18Q153 -71 106 -106T-15 -177Z" />
<glyph unicode="*" glyph-name="asterisk" horiz-adv-x="485" d="M337 506Q362 509 408 536Q443 556 464 556Q484 556 496 545T509 514Q509 496 494 484T456 472Q440 472 387 485Q371 489 358 489Q350 489 340 487Q347 472 355 463T390 430Q429 394 429 366Q429
349 418 337T389 325Q374 325 362 336T344 366Q339 383 335 434Q334 456 323 479Q303 459 284 413Q257 354 221 354Q206 354 194 366T182 394Q182 419 209 438Q222 447 271 467Q296 478 310 493Q294 501 283 503T235 510Q158 518 158 563Q158 580 170 591T198 603Q218
603 233 592T282 539Q300 519 319 509Q321 519 321 530Q321 540 312 586Q308 605 308 622Q308 646 319 661T350 677Q368 677 379 665T391 633Q391 618 385 605T354 550Q341 526 337 506Z" />
<glyph unicode="+" glyph-name="plus" horiz-adv-x="485" d="M66 357H253V550H300V357H487V310H300V117H253V310H66V357Z" />
<glyph unicode="," glyph-name="comma" horiz-adv-x="212" d="M-6 -116L-25 -93Q53 -58 53 -19Q53 -6 33 13Q20 24 20 42Q20 62 35 77T69 92Q90 92 105 75T120 34Q120 -9 86 -49T-6 -116Z" />
<glyph unicode="-" glyph-name="hyphen" horiz-adv-x="200" d="M213 269L193 197H-7L14 269H213Z" />
<glyph unicode="." glyph-name="period" horiz-adv-x="212" d="M49 92T69 92T103 78T118 43Q118 22 104 8T68 -7Q48 -7 34 7T19 43Q19 63 34 77Z" />
<glyph unicode="/" glyph-name="slash" horiz-adv-x="392" d="M487 667L-14 -167H-85L421 667H487Z" />
<glyph unicode="0" glyph-name="zero" horiz-adv-x="485" d="M346 675Q410 675 448 616T487 459Q487 343 446 234T339 57T201 -10Q140 -10 101 52T61 210Q61 324 102 432T209 608T346 675ZM341 650Q279 650 221 538Q188 473 160 348T131 143Q131 85 154 44Q172
15 204 15Q260 15 311 106Q351 178 382 309T413 536Q413 588 393 619T341 650Z" />
<glyph unicode="1" glyph-name="one" horiz-adv-x="485" d="M243 634L434 680L262 100Q255 75 255 59Q255 42 269 30T304 18H326L321 0H73L78 18H92Q130 18 149 37T184 106L318 557Q327 591 327 598Q327 609 318 617T297 626Q287 626 267 621Q266 621 250 617L243 634Z" />
<glyph unicode="2" glyph-name="two" horiz-adv-x="485" d="M406 130L349 0H36L39 11Q162 112 279 247Q399 388 399 482Q399 535 367 568T284 602Q248 602 223 585T173 526L155 532Q193 605 235 637T333 670Q394 670 434 628T474 521Q474 455 423 376T250 176L135
62H291Q330 62 350 77T389 137L406 130Z" />
<glyph unicode="3" glyph-name="three" horiz-adv-x="485" d="M210 558L195 567Q230 623 267 648T350 674Q405 674 443 639T481 551Q481 485 426 441Q388 410 319 394Q408 343 408 240Q408 136 337 63T165 -10Q114 -10 82 5T50 46Q50 63 63 74T96 85Q114 85 127
80T175 52Q209 31 239 31Q280 31 309 76T338 188Q338 281 284 329Q247 361 171 367L176 383Q281 389 338 430Q400 475 400 536Q400 575 375 601T311 628Q249 628 210 558Z" />
<glyph unicode="4" glyph-name="four" horiz-adv-x="485" d="M275 190H50L67 249L447 682H483L361 249H431L414 190H344L289 0H220L275 190ZM292 249L380 559L112 249H292Z" />
<glyph unicode="5" glyph-name="five" horiz-adv-x="485" d="M269 600L225 507Q305 499 354 453Q421 389 421 285Q421 175 333 85T137 -5Q100 -5 74 13T48 56Q48 73 60 84T89 96Q112 96 141 71Q175 42 207 42Q262 42 308 105T354 242Q354 291 334 336T281 404Q245
428 165 435L271 667H504L485 600H269Z" />
<glyph unicode="6" glyph-name="six" horiz-adv-x="485" d="M498 676L493 659Q417 646 342 582T206 415Q260 434 295 434Q360 434 401 386T442 262Q442 156 373 74T214 -9Q146 -9 102 50T58 200Q58 303 108 401T248 569Q362 659 498 676ZM186 370Q126 239 126
140Q126 84 148 51T207 17Q260 17 303 79Q325 109 342 169T359 276Q359 329 332 364T264 399Q226 399 186 370Z" />
<glyph unicode="7" glyph-name="seven" horiz-adv-x="485" d="M445 597H288Q233 597 213 585T159 518H137L219 667H534L177 -7L135 13L445 597Z" />
<glyph unicode="8" glyph-name="eight" horiz-adv-x="485" d="M338 368Q385 315 405 274T425 186Q425 109 364 50T224 -10Q153 -10 106 34T58 143Q58 225 124 286Q163 322 242 354Q163 444 163 513Q163 578 216 626T343 674Q408 674 451 636T494 541Q494 472 436
423Q401 394 338 368ZM323 383Q342 393 357 403Q434 453 434 543Q434 589 407 616T334 644Q288 644 262 616T235 541Q235 505 252 474T323 383ZM258 337Q251 333 243 329T232 323Q180 294 150 244T119 138T147 50T225 17Q280 17 319 58T359 157Q359 200 338 238T258
337Z" />
<glyph unicode="9" glyph-name="nine" horiz-adv-x="485" d="M51 -10L56 6Q131 19 207 83T343 250Q289 231 254 231Q189 231 148 279T107 403Q107 509 176 591T335 674Q403 674 447 615T491 465Q491 361 441 263T301 96Q185 6 51 -10ZM363 295Q423 427 423 525Q423
581 401 614T342 648Q289 648 246 586Q224 555 208 495T191 388Q191 335 218 301T285 266Q323 266 363 295Z" />
<glyph unicode=":" glyph-name="colon" horiz-adv-x="212" d="M49 92T69 92T103 78T118 43Q118 22 104 8T68 -7Q48 -7 34 7T19 43Q19 63 34 77ZM125 358T145 358T179 344T194 309Q194 288 180 274T144 259Q124 259 110 273T95 309Q95 329 110 343Z" />
<glyph unicode=";" glyph-name="semicolon" horiz-adv-x="212" d="M-6 -116L-25 -93Q53 -58 53 -19Q53 -6 33 13Q20 24 20 42Q20 62 35 77T69 92Q90 92 105 75T120 34Q120 -9 86 -49T-6 -116ZM133 358T153 358T187 344T202 309Q202 288 188 274T152 259Q132 259
118 273T103 309Q103 329 118 343Z" />
<glyph unicode="&lt;" glyph-name="less" horiz-adv-x="500" d="M491 614V575L181 373L491 166V64L77 341V348L491 614Z" />
<glyph unicode="=" glyph-name="equal" horiz-adv-x="485" d="M66 423H486V376H66V423ZM66 291H486V244H66V291Z" />
<glyph unicode="&gt;" glyph-name="greater" horiz-adv-x="500" d="M77 64V103L387 304L77 511V614L491 337V330L77 64Z" />
<glyph unicode="?" glyph-name="question" d="M151 92Q171 92 185 77T200 42T186 8T150 -7Q130 -7 116 7T101 43Q101 63 115 77T151 92ZM177 156H154Q169 242 194 294T276 410Q351 497 351 574Q351 656 285 656Q256 656 236 644T216 615Q216 604 226 591Q237 575
237 564Q237 548 225 537T197 525Q180 525 169 538T158 572Q158 614 197 645T288 677Q346 677 386 637T427 538Q427 490 390 444Q374 424 361 413T282 348Q239 314 209 258T177 156Z" />
<glyph unicode="@" glyph-name="at" horiz-adv-x="743" d="M571 127L609 110Q548 66 508 42Q421 -7 330 -7Q217 -7 143 66T69 251Q69 355 129 455T288 613Q392 674 511 674Q623 674 689 617T755 463Q755 353 672 256T496 158Q465 158 448 177T430 230Q430 236
431 240Q353 157 289 157Q263 157 247 175T230 223Q230 277 270 343T368 456T473 502Q508 502 521 467L532 491L602 500L512 288Q492 239 492 222Q492 203 518 203Q566 203 628 268Q706 351 706 453Q706 532 652 580T507 628Q362 628 256 530Q199 478 162 399T124
254Q124 215 142 172T188 100Q249 39 346 39Q421 39 495 80Q528 98 571 127ZM470 468Q421 468 353 368Q301 292 301 241Q301 212 329 212Q372 212 428 283Q456 318 476 364T497 438Q497 468 470 468Z" />
<glyph unicode="A" glyph-name="A" horiz-adv-x="557" d="M341 209H164L66 71Q55 55 55 45Q55 18 99 18H118L113 0H-83L-78 18H-67Q-40 18 -20 33T31 91L447 667H465L429 105Q427 75 427 68Q427 40 440 29T489 18H512L507 0H244L249 18H272Q307 18 319 32T334
91L341 209ZM344 245L359 483L190 245H344Z" />
<glyph unicode="B" glyph-name="B" horiz-adv-x="571" d="M159 667H385Q482 667 529 630Q579 590 579 524Q579 489 561 454T512 395Q479 369 412 352Q519 312 519 214Q519 162 493 116T421 42Q381 17 332 9T171 0H-20L-15 18Q34 19 54 35T90 105L222 566Q229 587
229 607Q229 635 204 644Q189 649 154 649L159 667ZM332 626L259 370Q295 368 308 368Q386 368 435 413T484 532Q484 578 454 604T368 630Q352 630 332 626ZM249 335L166 47Q201 38 227 38Q310 38 363 89T416 222Q416 335 272 335H249Z" />
<glyph unicode="C" glyph-name="C" horiz-adv-x="612" d="M560 161L573 153Q519 71 452 32Q384 -9 317 -9Q207 -9 135 67T63 260Q63 348 110 435T241 588Q345 672 467 672Q523 672 585 654Q604 648 614 648Q640 648 657 669H673L623 461H606Q611 489 611 508Q611
568 574 604T476 641Q431 641 382 617T293 550Q238 493 203 405T167 235Q167 147 220 91T356 34Q467 34 560 161Z" />
<glyph unicode="D" glyph-name="D" horiz-adv-x="655" d="M-20 0L-15 18Q34 19 54 35T90 105L223 569Q230 595 230 609Q230 635 205 644Q190 649 156 649L161 667H380Q456 667 501 652T583 599Q654 525 654 402Q654 311 610 224T491 81Q383 0 232 0H-20ZM337 630L184
95Q179 78 179 66Q179 38 222 38Q375 38 457 133Q500 183 526 261T552 420Q552 517 503 575T371 633Q361 633 337 630Z" />
<glyph unicode="E" glyph-name="E" horiz-adv-x="577" d="M250 333L181 92Q175 73 175 65Q175 47 192 42T272 37Q376 37 451 90Q496 122 529 189H545L480 0H-11L-6 18Q38 20 57 37T90 105L223 566Q230 594 230 607Q230 635 205 644Q188 649 152 649L157 667H634L588
507H571Q577 529 577 546Q577 592 546 611T438 630H335L260 369H326Q366 369 386 375T425 400Q444 419 460 469H478L408 227H391Q402 265 402 286Q402 311 385 322T327 333H250Z" />
<glyph unicode="F" glyph-name="F" horiz-adv-x="523" d="M251 332L184 100Q177 74 177 59Q177 32 202 24Q218 18 259 18H276L270 0H-11L-6 18Q38 20 57 37T91 106L223 566Q230 594 230 607Q230 635 205 644Q188 649 153 649L159 667H625L577 502H559Q573 542
573 560Q573 593 546 611T471 630H336L261 368H334Q403 368 433 408Q444 423 458 468H476L407 226H389Q402 274 402 289Q402 332 337 332H251Z" />
<glyph unicode="G" glyph-name="G" horiz-adv-x="632" d="M657 667L610 463H592Q600 504 600 517Q600 570 560 603T454 637Q318 637 234 486Q202 428 182 352T162 210Q162 122 205 74Q225 52 255 39T317 25Q360 25 407 46L461 237Q468 257 468 278Q468 305 443
314Q426 319 390 319H381L386 337H655L650 319Q608 317 588 299T555 231L498 33Q393 -11 316 -11Q202 -11 132 60T62 248Q62 331 94 408T179 543T304 635T453 670Q513 670 579 643Q592 638 598 638Q621 638 641 667H657Z" />
<glyph unicode="H" glyph-name="H" horiz-adv-x="706" d="M252 332L185 100Q178 74 178 59Q178 32 203 23Q218 18 248 18L243 0H-14L-9 18Q37 20 57 37T91 105L223 566Q230 594 230 608Q230 635 205 644Q190 649 159 649L164 667H434L429 649Q375 649 354 633T317
561L263 369H530L586 566Q593 587 593 608Q593 635 568 644Q553 649 522 649L528 667H793L788 649Q737 649 717 632T681 561L549 100Q542 74 542 59Q542 32 567 23Q582 18 614 18L608 0H344L350 18Q399 19 419 36T454 105L519 332H252Z" />
<glyph unicode="I" glyph-name="I" horiz-adv-x="343" d="M248 18L243 0H-14L-9 18Q37 20 57 37T91 106L223 567Q230 593 230 608Q230 635 205 644Q190 649 159 649L164 667H434L429 649Q375 649 354 633T317 561L185 100Q178 74 178 59Q178 32 203 23Q218 18 248 18Z" />
<glyph unicode="J" glyph-name="J" horiz-adv-x="404" d="M225 649L230 667H485L480 649Q443 647 424 628T392 561L286 190Q259 96 213 50Q152 -11 83 -11Q39 -11 10 15T-20 80Q-20 110 -1 131T44 152Q63 152 76 139T90 107Q90 89 76 75T62 49Q62 39 70 33T91
26Q114 26 134 50T168 117L296 567Q303 587 303 608Q303 635 278 644Q266 649 225 649Z" />
<glyph unicode="K" glyph-name="K" horiz-adv-x="638" d="M255 351L184 100Q178 77 178 59Q178 36 194 27T255 18L249 0H-17L-12 18Q35 19 55 36T90 106L222 567Q229 593 229 608Q229 635 204 644Q189 649 155 649L160 667H425L420 649Q371 648 351 631T317 561L261
369L544 605Q565 622 565 631Q565 649 522 649H516L522 667H721L715 649Q663 648 607 605L339 387L473 131Q509 63 537 40T613 18L607 0H339L345 18Q408 22 408 53Q408 71 392 100L255 351Z" />
<glyph unicode="L" glyph-name="L" horiz-adv-x="580" d="M562 185L499 0H-13L-8 18Q38 19 57 36T90 105L223 567Q229 588 229 608Q229 635 204 644Q192 649 151 649L156 667H441L435 649Q376 650 355 634T317 561L185 98Q177 72 177 62Q177 34 214 34H303Q404
34 452 64Q509 101 544 185H562Z" />
<glyph unicode="M" glyph-name="M" horiz-adv-x="810" d="M377 153L732 667H896L891 649Q840 649 819 632T784 561L651 100Q644 74 644 59Q644 32 669 23Q684 18 717 18L712 0H446L452 18Q499 19 519 36T555 106L686 543L318 0H300L252 567L119 100Q112 80 112
59Q112 32 137 23Q152 18 188 18L182 0H-23L-18 18Q29 19 49 36T83 106L226 605Q229 614 229 616Q229 628 205 640Q194 645 153 649L158 667H334L377 153Z" />
<glyph unicode="N" glyph-name="N" horiz-adv-x="643" d="M253 544L126 100Q119 74 119 59Q119 32 144 23Q159 18 195 18L190 0H-18L-13 18Q35 19 55 36T90 105L232 602Q205 650 147 650H128L132 667H308L482 180L593 566Q599 588 599 608Q599 630 583 639T526
649L532 667H737L732 649Q685 648 665 631T630 561L467 -8H453L253 544Z" />
<glyph unicode="O" glyph-name="O" horiz-adv-x="652" d="M444 670Q541 670 601 607T661 443Q661 352 615 254T492 81Q398 -10 273 -10Q172 -10 114 51T55 219Q55 304 93 393T199 553Q252 608 317 639T444 670ZM436 633Q398 633 360 611T292 551Q234 474 196 366T157
170Q157 105 191 65T279 24Q329 24 378 62T464 167Q508 246 533 332T559 486T526 593T436 633Z" />
<glyph unicode="P" glyph-name="P" horiz-adv-x="523" d="M249 327L184 100Q177 74 177 59Q177 32 202 23Q215 18 256 18L251 0H-18L-13 18Q35 19 55 36T90 106L222 567Q229 588 229 608Q229 635 204 644Q189 649 155 649L160 667H382Q476 667 530 627T584 517Q584
427 515 370T335 313Q299 313 249 327ZM334 623L258 358Q289 348 316 348Q381 348 426 388Q452 411 468 448T484 521Q484 571 457 600T382 629Q363 629 334 623Z" />
<glyph unicode="Q" glyph-name="Q" horiz-adv-x="654" d="M304 -9L217 -70Q227 -69 240 -69Q285 -69 382 -90Q426 -100 469 -100Q559 -100 613 -29L626 -38Q582 -95 547 -118Q479 -165 394 -165Q355 -165 253 -143Q166 -125 136 -125Q107 -125 83 -142L74 -131L241
-9Q152 2 104 62T55 222Q55 305 94 394T200 553Q253 608 317 639T444 670Q541 670 601 607T661 442Q661 352 615 253T492 80Q407 -2 304 -9ZM436 633Q398 633 360 611T292 551Q234 474 196 366T157 170Q157 105 191 65T279 24Q329 24 378 62T464 167Q508 246 533
332T559 486T526 593T436 633Z" />
<glyph unicode="R" glyph-name="R" horiz-adv-x="608" d="M249 330L184 100Q177 79 177 59Q177 32 202 23Q217 18 252 18L247 0H-19L-14 18Q35 19 55 35T91 105L223 566Q230 592 230 607Q230 635 205 644Q190 649 156 649L161 667H409Q485 667 532 628T580 524Q580
447 514 387Q476 352 402 330L487 117Q508 63 529 41T586 16L582 0H435L310 321Q294 323 292 323Q266 325 249 330ZM335 627L258 358Q287 352 312 352Q382 352 422 386Q448 409 465 448T483 523Q483 565 459 595Q433 630 378 630Q365 630 335 627Z" />
<glyph unicode="S" glyph-name="S" horiz-adv-x="536" d="M564 667L509 448H492Q497 475 497 493Q497 550 455 589T351 628Q302 628 269 600T235 529Q235 497 254 469T322 397Q375 351 397 330T436 283Q476 227 476 171Q476 131 455 92T399 26Q345 -15 265 -15Q208
-15 134 15Q102 27 91 27Q65 27 42 -17H25L76 230H94Q89 193 89 177Q89 113 135 68T246 23Q302 23 340 60T378 154Q378 193 359 225T290 298Q205 370 179 402Q143 448 143 498Q143 566 201 617T336 668Q388 668 449 643Q480 630 493 630Q526 630 545 667H564Z"
/>
<glyph unicode="T" glyph-name="T" horiz-adv-x="567" d="M447 626L297 100Q290 80 290 59Q290 32 315 23Q332 18 369 18H379L373 0H85L90 18Q146 18 167 34T203 106L352 626H289Q201 626 153 578Q126 551 110 491H91L141 667H681L631 491H614Q622 528 622 560Q622
626 544 626H447Z" />
<glyph unicode="U" glyph-name="U" horiz-adv-x="670" d="M139 649L144 667H418L413 649Q361 649 341 632T305 561L219 262Q200 196 200 155Q200 105 240 72T339 38Q404 38 455 90Q501 138 529 234L624 567Q631 588 631 608Q631 635 606 644Q591 649 560 649L565
667H765L760 649Q713 648 693 631T657 561L557 210Q526 106 460 49T301 -8Q221 -8 166 43T110 168Q110 212 124 262L212 567Q218 588 218 608Q218 631 201 640T139 649Z" />
<glyph unicode="V" glyph-name="V" horiz-adv-x="575" d="M263 176L565 587Q581 609 581 625Q581 636 571 642T543 649H519L524 667H722L717 649Q684 649 652 625T578 542L174 -5H158L194 560Q194 570 194 578T196 591V595Q196 626 185 637T143 649H109L114 667H381L376
649H352Q321 649 303 631Q289 616 287 574L263 176Z" />
<glyph unicode="W" glyph-name="W" horiz-adv-x="841" d="M498 469L180 0H163L191 570V586Q191 623 179 636T131 649H110L115 667H378L373 649H358Q315 649 301 633T284 563L265 189L498 541V591Q498 623 485 636T437 649H415L420 667H684L679 649H664Q622 649
604 631Q592 619 591 585L569 189L829 577Q850 606 850 622Q850 634 839 641T809 649H790L795 667H989L984 649Q921 649 848 541L485 0H471L498 469Z" />
<glyph unicode="X" glyph-name="X" horiz-adv-x="574" d="M287 268L126 74Q108 52 108 40Q108 18 154 18H175L169 0H-39L-33 18Q-6 18 35 45T109 113L277 312L214 563Q203 610 182 631Q164 649 127 649H109L115 667H381L375 649H360Q304 649 304 611Q304 597 310
569L349 403L498 582Q523 612 523 628Q523 649 491 649H481L487 667H687L681 649Q635 647 603 627T522 550L360 357L418 123Q434 61 450 40T501 18H513L507 0H254L260 18H277Q335 18 335 62Q335 68 331 88L287 268Z" />
<glyph unicode="Y" glyph-name="Y" horiz-adv-x="546" d="M368 313L307 100Q300 79 300 59Q300 29 332 21Q342 18 383 18L377 0H90L96 18Q152 17 173 33T211 106L273 324L202 575Q191 615 172 632T117 649H96L102 667H383L378 649H357Q293 649 293 609Q293 600
300 575L357 360L512 575Q535 607 535 621Q535 649 483 649H467L473 667H694L688 649Q613 648 535 541L368 313Z" />
<glyph unicode="Z" glyph-name="Z" horiz-adv-x="616" d="M155 39H298Q391 39 442 52T524 98Q554 129 569 179H591L532 0H-3L519 629H354Q274 629 236 622T172 595Q143 572 121 510H97L151 667H676L155 39Z" />
<glyph unicode="[" glyph-name="bracketleft" horiz-adv-x="292" d="M250 642L25 -142H114L107 -167H-54L185 667H346L339 642H250Z" />
<glyph unicode="\" glyph-name="backslash" horiz-adv-x="392" d="M164 667H230L314 -167H247L164 667Z" />
<glyph unicode="]" glyph-name="bracketright" horiz-adv-x="292" d="M59 -142L284 642H195L202 667H363L124 -167H-37L-30 -142H59Z" />
<glyph unicode="^" glyph-name="asciicircum" horiz-adv-x="500" d="M559 286H520L318 596L111 286H9L286 700H293L559 286Z" />
<glyph unicode="_" glyph-name="underscore" horiz-adv-x="500" d="M56 -88H512V-132H56V-88Z" />
<glyph unicode="`" glyph-name="grave" horiz-adv-x="500" d="M246 648H352L377 497L246 648Z" />
<glyph unicode="a" glyph-name="a" horiz-adv-x="483" d="M428 102L441 89Q367 -15 311 -15Q291 -15 280 -3T269 30Q269 44 284 96Q284 97 285 100T287 109T289 118Q239 51 203 26Q150 -12 104 -12Q66 -12 42 18T18 97Q18 170 61 251T168 387T291 442T363 374L378
428L454 438L350 75Q344 56 344 50Q344 38 356 38Q384 38 428 102ZM293 413Q236 413 179 330Q95 208 95 114Q95 46 149 46Q195 46 244 103Q287 151 316 223T345 351Q345 380 331 396T293 413Z" />
<glyph unicode="b" glyph-name="b" horiz-adv-x="466" d="M30 34L190 591Q196 610 196 618T188 632T170 639Q166 639 152 637L141 636L146 655Q201 660 281 672L199 384Q241 420 267 433T326 446Q378 446 411 409T444 315Q444 247 411 176T324 56Q249 -13 160
-13Q91 -13 30 34ZM170 282L99 37Q128 17 165 17Q228 17 281 80Q312 117 334 181T357 299Q357 342 338 367T284 392Q242 392 208 356Q184 332 170 282Z" />
<glyph unicode="c" glyph-name="c" horiz-adv-x="380" d="M322 110L340 101Q304 49 253 19T152 -12Q100 -12 60 30Q26 67 26 136Q26 251 110 348T293 445Q330 445 356 423T382 368Q382 342 366 322T330 302Q316 302 306 312T295 335Q295 352 311 370Q326 386 326
394Q326 405 315 413T289 422Q222 422 164 332T105 141Q105 93 130 63T195 32Q266 32 322 110Z" />
<glyph unicode="d" glyph-name="d" horiz-adv-x="474" d="M284 97L291 128Q244 62 206 30Q155 -13 106 -13Q67 -13 43 21T18 111Q18 185 62 263T174 393T305 445Q343 445 374 414L424 592Q429 609 429 614Q429 623 421 629T401 636Q398 636 382 634L370 633L376
652Q446 657 515 671L341 85Q335 64 335 51Q335 39 352 39Q383 39 431 101L446 90Q367 -16 305 -16Q289 -16 279 -4T269 27Q269 42 284 97ZM296 418Q233 418 170 316Q104 208 104 120Q104 86 116 66T151 46Q174 46 211 79T276 157Q306 205 328 267T350 363Q350
389 336 403T296 418Z" />
<glyph unicode="e" glyph-name="e" horiz-adv-x="406" d="M329 105L348 91Q291 35 247 11T157 -13Q98 -13 62 28T25 137Q25 210 65 282T170 400T299 446Q339 446 365 425T392 373Q392 331 362 291T279 227Q215 197 109 193Q106 163 106 141Q106 95 132 66T198
37Q264 37 329 105ZM115 218Q130 219 156 222Q237 236 285 291Q322 334 322 376Q322 393 310 405T282 418Q236 418 189 362T115 218Z" />
<glyph unicode="f" glyph-name="f" horiz-adv-x="261" d="M212 405L140 132Q103 -7 41 -87T-92 -168Q-120 -168 -137 -154T-155 -118Q-155 -102 -143 -90T-114 -78Q-101 -78 -93 -85T-84 -104Q-84 -127 -107 -135Q-105 -149 -88 -149Q-62 -149 -38 -131T2 -80Q19
-48 30 -12T68 132L141 405H57L66 436H94Q117 436 133 448T162 492Q246 676 367 676Q399 676 420 661T441 621Q441 604 430 592T403 579Q390 579 380 588T370 608Q370 618 383 636Q386 639 386 643Q386 654 364 654Q326 654 293 612T238 496L220 436H284L275 405H212Z"
/>
<glyph unicode="g" glyph-name="g" horiz-adv-x="438" d="M458 410L443 355H377Q385 327 385 311Q385 246 333 200T207 154H203Q136 132 136 103Q136 93 151 87T214 70Q268 59 288 52T327 28Q362 1 362 -41Q362 -100 304 -137T156 -175Q77 -175 32 -151Q10 -139
-3 -119T-17 -78Q-17 -52 3 -30T87 38Q67 57 67 77Q67 99 85 118T150 161Q60 192 60 275Q60 345 127 394Q186 437 251 437Q292 437 339 410H458ZM249 406Q208 406 175 359T142 253Q142 219 158 199T200 179Q236 179 262 211Q279 232 292 271T305 340Q305 406 249
406ZM110 23Q106 21 105 21Q45 -20 45 -71Q45 -104 79 -125T168 -146Q224 -146 262 -124T301 -69Q301 -39 261 -19Q233 -5 155 11Q132 16 110 23Z" />
<glyph unicode="h" glyph-name="h" horiz-adv-x="493" d="M289 670L159 234Q214 308 232 330T277 377Q341 437 385 437Q410 437 425 422T440 381Q440 354 425 305L358 70Q353 54 353 48T357 37T367 32Q377 32 395 48T431 89L446 82Q410 38 394 23Q352 -17 318
-17Q301 -17 290 -5T279 25T287 70L356 310Q366 344 366 357Q366 368 360 375T344 383Q298 383 216 276Q171 219 151 178T105 48L91 0H18L185 561Q198 608 198 616T191 630T175 636Q172 636 158 634L147 633L153 652Q226 660 289 670Z" />
<glyph unicode="i" glyph-name="i" horiz-adv-x="249" d="M196 104L203 83Q123 -15 76 -15Q59 -15 47 -4T34 23Q34 37 40 58L122 342Q130 371 130 385Q130 408 103 408Q92 408 71 404L76 423Q145 428 223 448L114 66Q111 57 111 52T115 43T126 38Q137 38 157 57T196
104ZM211 617Q231 617 246 602T261 566Q261 545 246 530T210 515T174 530T159 566T174 602T211 617Z" />
<glyph unicode="j" glyph-name="j" horiz-adv-x="229" d="M72 401L77 419Q148 425 221 440L106 37Q78 -63 28 -117T-85 -172Q-116 -172 -136 -159T-156 -126Q-156 -110 -145 -99T-116 -88Q-101 -88 -92 -96T-83 -117Q-83 -142 -109 -142Q-100 -155 -84 -155Q-50
-155 -25 -122Q-11 -104 -3 -85T21 -12L124 351Q130 370 130 378Q130 404 100 404Q94 404 72 401ZM209 617Q229 617 244 602T259 566Q259 545 244 530T208 515T172 530T157 566T172 602T209 617Z" />
<glyph unicode="k" glyph-name="k" horiz-adv-x="485" d="M142 177L91 0H23L185 586Q191 607 191 616Q191 624 184 630T167 636Q164 636 150 634L140 633L145 652Q211 659 284 675L153 215L286 329Q341 377 350 386T360 405Q360 413 353 415T319 420L323 435H501L497
420Q418 417 259 275L322 100Q344 39 367 39Q381 39 401 63T441 124L455 116Q421 54 391 22Q360 -12 328 -12Q293 -12 275 40L207 232L142 177Z" />
<glyph unicode="l" glyph-name="l" horiz-adv-x="248" d="M189 93L201 80Q154 25 128 6T73 -14Q55 -14 43 -2T31 28Q31 37 38 60L189 588Q195 609 195 616Q195 624 188 630T172 636Q169 636 155 634L144 633L150 652Q211 658 285 672L110 60Q108 52 108 48Q108
35 121 35Q132 35 144 45T189 93Z" />
<glyph unicode="m" glyph-name="m" horiz-adv-x="744" d="M225 452L163 233Q303 451 394 451Q417 451 433 434T449 391Q449 365 439 334L414 244Q485 352 538 401T639 450Q662 450 677 433T693 390Q693 360 679 312L612 79Q608 67 608 58Q608 53 611 49T619 45Q645
45 688 102L698 92Q632 -5 571 -5Q553 -5 542 7T530 37Q530 47 535 66L613 334Q618 357 618 364Q618 376 611 384T592 393Q569 393 541 368T465 281Q425 228 409 197T377 115L343 0H270L366 334Q371 351 371 365Q371 377 364 385T347 393Q305 393 224 289Q150 192
128 113L95 0H23L129 368Q135 389 135 397T128 411T112 417Q109 417 95 415L85 413L90 433Q161 440 225 452Z" />
<glyph unicode="n" glyph-name="n" horiz-adv-x="496" d="M227 447L161 236Q238 347 290 394T388 442Q413 442 427 425T442 379Q442 352 434 322L362 72Q358 60 358 50Q358 45 362 41T371 36Q394 36 439 94L448 84Q377 -11 319 -11Q301 -11 289 0T277 29Q277 43
283 59L361 311Q369 337 369 357Q369 369 362 377T344 386Q303 386 219 281Q148 192 126 115L93 0H20L127 355Q137 390 137 397Q137 405 130 411T113 417Q110 417 96 415L85 413L91 433Q160 437 227 447Z" />
<glyph unicode="o" glyph-name="o" horiz-adv-x="450" d="M288 446Q346 446 383 401T421 285Q421 222 393 162T314 58Q236 -11 162 -11Q102 -11 66 33T29 150Q29 261 110 353T288 446ZM278 421Q218 421 171 346Q140 298 121 232T101 110Q101 66 120 40T171 14Q234
14 281 100Q309 151 327 213T345 325Q345 367 326 394T278 421Z" />
<glyph unicode="p" glyph-name="p" horiz-adv-x="445" d="M95 7L64 -103Q58 -122 58 -129T66 -142T84 -149H132L127 -167H-85L-80 -149H-54Q-30 -149 -21 -135T8 -56L123 345Q130 369 130 379Q130 408 106 408Q98 408 78 403L83 421Q139 429 221 443L192 345Q230
397 261 419T327 441Q370 441 396 405T422 310Q422 234 383 159T283 36T161 -12Q129 -12 95 7ZM157 223L105 41Q128 11 163 11Q226 11 284 108T343 312Q343 347 330 370T294 393Q254 393 214 345Q180 302 157 223Z" />
<glyph unicode="q" glyph-name="q" horiz-adv-x="457" d="M219 -103L293 153Q192 -8 98 -8Q63 -8 41 26T19 116Q19 217 98 326Q140 384 188 416T281 449Q342 449 359 384L376 442L451 450L293 -103Q287 -121 287 -129Q287 -136 295 -142T312 -149H342L337 -167H122L128
-149H172Q191 -149 201 -139T219 -103ZM286 426Q239 426 180 344Q146 298 121 231T95 121Q95 50 144 50Q176 50 213 83T283 173Q308 217 326 272T345 357Q345 385 328 405T286 426Z" />
<glyph unicode="r" glyph-name="r" horiz-adv-x="339" d="M222 450L160 235Q204 334 249 393T327 452Q344 452 355 437T367 398Q367 372 351 351T316 329Q288 329 285 356Q282 371 277 371Q271 371 250 341T212 281Q133 132 100 0H23L125 355Q135 392 135 397Q135
405 128 411T113 417Q109 417 97 415Q95 415 73 411L79 432Q159 440 222 450Z" />
<glyph unicode="s" glyph-name="s" horiz-adv-x="351" d="M332 442L307 299H291Q292 308 292 319Q292 362 268 390T209 419Q184 419 168 402T151 359Q151 338 162 317T208 256Q249 207 264 178T279 117Q279 63 240 25T144 -13Q116 -13 63 4Q54 8 43 8Q26 8 15
-12H-4L24 140H40Q41 82 66 47T131 11Q163 11 187 35T211 93Q211 135 155 201Q115 248 102 274T89 334Q89 380 121 413T200 446Q236 446 270 426Q282 420 289 420Q303 420 318 442H332Z" />
<glyph unicode="t" glyph-name="t" horiz-adv-x="268" d="M212 405L124 95Q114 56 114 50T119 40T130 35Q155 35 205 103L216 90Q146 -13 90 -13Q68 -13 55 0T41 36Q41 60 53 103L140 405H71L79 436Q124 445 156 469T230 546H253L221 436H286L277 405H212Z" />
<glyph unicode="u" glyph-name="u" horiz-adv-x="497" d="M467 433L372 105Q369 90 366 81Q361 59 361 58Q359 50 359 48Q359 44 362 40T371 36Q392 36 435 88L444 75Q414 34 380 11T317 -13Q301 -13 291 -3T280 23Q280 40 288 69L326 200Q256 93 206 44Q145 -14
101 -14Q77 -14 63 4T49 55Q49 75 53 88L130 355Q133 367 133 375Q133 381 128 386T117 391Q106 391 97 383T63 348L49 331L38 342Q86 401 113 422T169 443Q186 443 197 432T209 404Q209 388 203 366L130 111Q123 87 123 73Q123 44 154 44Q196 44 269 145Q314 207
331 241T369 349L393 433H467Z" />
<glyph unicode="v" glyph-name="v" horiz-adv-x="366" d="M21 398L26 416Q85 425 148 444Q186 304 186 143Q186 111 185 85Q242 158 276 226T311 334Q311 345 307 350T289 365Q267 380 267 403Q267 419 280 430T310 442Q332 442 347 425T362 381Q362 329 309 232Q276
170 252 135T150 5L134 -16H113Q118 25 118 65Q118 264 91 355Q83 382 75 392T53 403Q48 403 21 398Z" />
<glyph unicode="w" glyph-name="w" horiz-adv-x="595" d="M312 315L131 -13H112Q113 15 113 50Q113 260 95 353Q89 382 82 392T59 402Q54 402 35 399L40 417Q101 423 144 440Q177 374 182 127L357 440H372L401 82Q549 271 549 343Q549 357 529 368Q503 384 503
404Q503 420 515 431T547 442T580 427T594 391Q594 317 486 158Q443 93 357 -13H339L312 315Z" />
<glyph unicode="x" glyph-name="x" horiz-adv-x="465" d="M216 191L140 79Q78 -11 27 -11Q7 -11 -5 0T-18 30Q-18 45 -8 55T16 66Q27 66 41 55Q57 40 64 40Q89 40 146 126L208 219Q174 328 148 368T87 408Q70 408 44 398L49 415L176 444Q197 432 212 403T255 287Q324
380 342 401Q386 446 421 446Q439 446 450 435T461 404Q461 388 452 378T429 368Q422 368 404 373Q388 379 379 379Q357 379 333 355T264 263L313 106Q332 45 350 45Q372 45 415 112L429 96Q390 35 365 11T316 -13Q275 -13 253 61L216 191Z" />
<glyph unicode="y" glyph-name="y" horiz-adv-x="414" d="M189 386L206 70Q279 158 328 236T377 342Q377 350 374 353T354 363Q342 367 334 380T326 407Q326 425 337 436T366 447Q388 447 402 429T416 382Q416 300 233 68Q47 -167 -23 -167Q-39 -167 -50 -156T-62
-130Q-62 -114 -47 -99T-16 -84Q-5 -84 4 -90T15 -107Q16 -116 21 -116Q48 -116 143 -6L123 294Q119 358 105 382T58 406Q48 406 29 402L33 417L168 449Q185 428 189 386Z" />
<glyph unicode="z" glyph-name="z" horiz-adv-x="384" d="M69 66H220Q256 66 275 78T307 125H330L285 0H-6L0 19L309 377H158Q123 377 106 366T75 322H55L110 444H399L69 66Z" />
<glyph unicode="{" glyph-name="braceleft" horiz-adv-x="375" d="M412 634H373Q329 635 314 623T287 567L232 373Q215 313 198 289T149 260Q178 251 178 213Q178 185 163 135L106 -67Q97 -95 97 -108Q97 -124 108 -129T153 -134H192L183 -167H116Q64 -167 47
-162Q21 -154 21 -124Q21 -111 37 -56L94 143Q106 188 106 206Q106 238 82 260Q113 278 128 299T157 364L212 556Q225 604 233 620T257 649Q270 660 289 663T355 667H422L412 634Z" />
<glyph unicode="|" glyph-name="bar" horiz-adv-x="500" d="M256 667H311V-167H256V667Z" />
<glyph unicode="}" glyph-name="braceright" horiz-adv-x="375" d="M202 634L212 667H279Q340 667 354 660Q373 649 373 623Q373 607 358 556L304 366Q294 334 294 312Q294 284 320 262Q288 242 271 217T240 145L184 -52Q170 -101 162 -117T139 -145Q123 -157
106 -160T41 -163H-26L-16 -130H23Q69 -130 82 -120T108 -63L166 137Q197 249 252 262Q219 266 219 302Q219 324 234 375L289 567Q298 601 298 609Q298 623 286 628T241 634H202Z" />
<glyph unicode="~" glyph-name="asciitilde" horiz-adv-x="667" d="M563 734L577 725Q553 682 516 655T441 628Q421 628 380 642Q293 671 263 671Q239 671 222 661T181 623Q177 619 173 613L158 622Q216 720 296 720Q323 720 386 698Q439 679 465 679Q518 679 563 734Z" />
</font>
</defs>
</svg>
